<svg xmlns="http://www.w3.org/2000/svg" xmlns:xlink="http://www.w3.org/1999/xlink" viewBox="0 0 286.82 157.73" width="286.82" height="157.73"><defs><style>.cls-1{fill:url(#radial-gradient);}.cls-2{fill:#fff;}</style><radialGradient id="radial-gradient" cx="143.41" cy="78.87" r="115.73" gradientUnits="userSpaceOnUse"><stop offset="0" stop-color="#33b5e5"/><stop offset="1" stop-color="#09c"/></radialGradient></defs><title>Asset 1</title><g id="Layer_2" data-name="Layer 2"><g id="Layer_1-2" data-name="Layer 1"><path class="cls-1" d="M268.1,93.35c-4.65-2.44-9.55-3.17-14.27-4.56-2.3-12.31-5.67-23.87-14.39-33.1-2.45-4.79-7-7.28-11.22-10.1-10.6-7.09-22.09-10.88-35-10.32-10.59.46-20,4.22-29.34,9.22-.67-1.8-1.26-3.34-1.83-4.89C151.65,11.51,123.22-5.29,91.95,1.51a56.81,56.81,0,0,0-29,16.33c-8.07,8.27-13.7,17.87-15.54,29.45-2.2,6.58-1.84,13.43-1.42,20.07-4.65,1.68-9,0-12.92,1.3C17.74,73.52,6.77,83,2.05,98.77c-8.69,29.07,11.17,57.73,41.5,58.63,25.26.75,50.57,0,75.85-.05q18.48.68,37,0h0c32.63.08,65.26.22,97.89.17,7.56,0,14.16-3,20.12-7.68C290.75,137.07,293.2,106.51,268.1,93.35Z"/><path class="cls-2" d="M49.4,104.13a54.51,54.51,0,0,1,9.25-.68c4.56,0,7.75.68,9.94,2.46a7.7,7.7,0,0,1,2.87,6.43A8.14,8.14,0,0,1,66,119.85V120c2.14.87,3.33,2.87,4.1,5.7,1,3.51,1.87,7.52,2.46,8.71H65.49a41.19,41.19,0,0,1-2.1-7.16c-.87-3.87-2.19-4.88-5.06-4.92H56.28v12.08H49.4Zm6.88,13.17H59c3.46,0,5.52-1.73,5.52-4.42s-1.91-4.24-5.1-4.24a13.8,13.8,0,0,0-3.14.23Z"/><path class="cls-2" d="M97.44,121.4H86.13v7.29H98.76v5.7H79.2V103.67H98.12v5.7h-12v6.38h11.3Z"/><path class="cls-2" d="M106.46,127.24a17.56,17.56,0,0,0,7.7,1.91c3.19,0,4.88-1.32,4.88-3.33s-1.46-3-5.15-4.28c-5.1-1.82-8.48-4.65-8.48-9.12,0-5.24,4.42-9.21,11.62-9.21a18,18,0,0,1,7.84,1.55l-1.55,5.56a14.38,14.38,0,0,0-6.38-1.46c-3,0-4.47,1.41-4.47,3,0,2,1.69,2.83,5.7,4.33,5.42,2,7.93,4.83,7.93,9.16,0,5.15-3.92,9.53-12.35,9.53a20,20,0,0,1-8.71-1.92Z"/><path class="cls-2" d="M139.55,109.51h-8.3v-5.83h23.61v5.83h-8.39v24.89h-6.93Z"/><path class="cls-2" d="M180.34,126.51l-2.14,7.88H171l9.39-30.72h9.07L199,134.39h-7.48l-2.37-7.88Zm7.79-5.2-1.91-6.52c-.5-1.82-1-4.15-1.5-5.92h-.14c-.41,1.82-.91,4.15-1.37,5.92l-1.87,6.52Z"/><path class="cls-2" d="M205.87,104.08a56.92,56.92,0,0,1,9.39-.64c4.28,0,7.34.82,9.39,2.51a8.69,8.69,0,0,1,3.28,7.06,9.51,9.51,0,0,1-2.83,7.29c-2.37,2.19-5.88,3.24-10,3.24a11.91,11.91,0,0,1-2.37-.18v11h-6.88ZM212.75,118a10.37,10.37,0,0,0,2.32.18c3.69,0,6-1.87,6-5,0-2.83-2-4.51-5.47-4.51a12.39,12.39,0,0,0-2.83.23Z"/><path class="cls-2" d="M242.06,103.67v30.72h-6.93V103.67Z"/></g></g></svg>
